<?xml version="1.0" encoding="utf-8"?>
<!-- Generator: Adobe Illustrator 18.1.1, SVG Export Plug-In . SVG Version: 6.00 Build 0)  -->
<!DOCTYPE svg PUBLIC "-//W3C//DTD SVG 1.1//EN" "http://www.w3.org/Graphics/SVG/1.1/DTD/svg11.dtd">
<svg version="1.1" id="Layer_1" xmlns="http://www.w3.org/2000/svg" xmlns:xlink="http://www.w3.org/1999/xlink" x="0px" y="0px"
	 width="360px" height="360px" viewBox="0 0 360 360" enable-background="new 0 0 360 360" xml:space="preserve">
<g>
	<path d="M133.2,82.8l71.3-69.8c-8-1.2-16.2-1.8-24.5-1.8c-49.9,0-94.7,21.7-125.6,56.1L133.2,82.8z"/>
	<path d="M30.3,102.2c-12.1,23.3-19,49.7-19,77.8c0,23.1,4.7,45.2,13.1,65.3L65,172.2L30.3,102.2z"/>
	<path d="M239.3,120.1l109.4,57.2C347.5,101.6,296.4,38,226.9,17.9L239.3,120.1z"/>
	<path d="M129,264.7l-86.7,12.8c30.6,43.1,80.8,71.2,137.7,71.2c8.6,0,17.1-0.6,25.3-1.9L129,264.7z"/>
	<path d="M236.7,232.5l-19,112c74.9-17.1,130.8-84,131-164L236.7,232.5z"/>
</g>
</svg>
